<svg width="19" height="21" viewBox="0 0 19 21" fill="none" xmlns="http://www.w3.org/2000/svg">
<path d="M6.27679 11.8125H4.58036C4.30045 11.8125 4.07143 11.591 4.07143 11.3203V9.67969C4.07143 9.40898 4.30045 9.1875 4.58036 9.1875H6.27679C6.5567 9.1875 6.78571 9.40898 6.78571 9.67969V11.3203C6.78571 11.591 6.5567 11.8125 6.27679 11.8125ZM10.8571 11.3203V9.67969C10.8571 9.40898 10.6281 9.1875 10.3482 9.1875H8.65179C8.37187 9.1875 8.14286 9.40898 8.14286 9.67969V11.3203C8.14286 11.591 8.37187 11.8125 8.65179 11.8125H10.3482C10.6281 11.8125 10.8571 11.591 10.8571 11.3203ZM14.9286 11.3203V9.67969C14.9286 9.40898 14.6996 9.1875 14.4196 9.1875H12.7232C12.4433 9.1875 12.2143 9.40898 12.2143 9.67969V11.3203C12.2143 11.591 12.4433 11.8125 12.7232 11.8125H14.4196C14.6996 11.8125 14.9286 11.591 14.9286 11.3203ZM10.8571 15.2578V13.6172C10.8571 13.3465 10.6281 13.125 10.3482 13.125H8.65179C8.37187 13.125 8.14286 13.3465 8.14286 13.6172V15.2578C8.14286 15.5285 8.37187 15.75 8.65179 15.75H10.3482C10.6281 15.75 10.8571 15.5285 10.8571 15.2578ZM6.78571 15.2578V13.6172C6.78571 13.3465 6.5567 13.125 6.27679 13.125H4.58036C4.30045 13.125 4.07143 13.3465 4.07143 13.6172V15.2578C4.07143 15.5285 4.30045 15.75 4.58036 15.75H6.27679C6.5567 15.75 6.78571 15.5285 6.78571 15.2578ZM14.9286 15.2578V13.6172C14.9286 13.3465 14.6996 13.125 14.4196 13.125H12.7232C12.4433 13.125 12.2143 13.3465 12.2143 13.6172V15.2578C12.2143 15.5285 12.4433 15.75 12.7232 15.75H14.4196C14.6996 15.75 14.9286 15.5285 14.9286 15.2578ZM19 4.59375V19.0312C19 20.1182 18.0882 21 16.9643 21H2.03571C0.91183 21 0 20.1182 0 19.0312V4.59375C0 3.50684 0.91183 2.625 2.03571 2.625H4.07143V0.492188C4.07143 0.221484 4.30045 0 4.58036 0H6.27679C6.5567 0 6.78571 0.221484 6.78571 0.492188V2.625H12.2143V0.492188C12.2143 0.221484 12.4433 0 12.7232 0H14.4196C14.6996 0 14.9286 0.221484 14.9286 0.492188V2.625H16.9643C18.0882 2.625 19 3.50684 19 4.59375ZM16.9643 18.7852V6.5625H2.03571V18.7852C2.03571 18.9205 2.15022 19.0312 2.29018 19.0312H16.7098C16.8498 19.0312 16.9643 18.9205 16.9643 18.7852Z" fill="#13C2CD"/>
</svg>
