<svg width="22" height="22" viewBox="0 0 22 22" fill="none" xmlns="http://www.w3.org/2000/svg">
<path d="M19.3775 10.1573L20.7899 9.34196C21.208 9.10063 21.4107 8.60824 21.2857 8.14198C20.7799 6.25553 19.7846 4.56933 18.4444 3.2276C18.1038 2.8866 17.5762 2.81749 17.1588 3.05856L15.749 3.87283C15.291 3.54508 14.8023 3.26255 14.2897 3.0292V1.39902C14.2897 1.16422 14.2121 0.936013 14.069 0.749871C13.9259 0.563729 13.7253 0.430088 13.4984 0.369726C11.646 -0.122924 9.67864 -0.123545 7.82403 0.369681C7.35746 0.493786 7.03256 0.916178 7.03256 1.39898V3.02916C6.52001 3.2625 6.03131 3.54504 5.57333 3.87278L4.16351 3.05852C3.74613 2.81745 3.21853 2.88655 2.87788 3.22755C1.53766 4.56929 0.542421 6.25544 0.0365981 8.14194C-0.0884383 8.6082 0.114264 9.10058 0.532353 9.34192L1.94475 10.1573C1.89063 10.7178 1.89063 11.2822 1.94475 11.8427L0.532353 12.6581C0.114264 12.8994 -0.0884383 13.3918 0.0365981 13.858C0.542421 15.7445 1.53766 17.4307 2.87788 18.7724C3.21853 19.1134 3.74613 19.1825 4.16351 18.9415L5.57333 18.1272C6.0313 18.4549 6.52 18.7375 7.03256 18.9708V20.601C7.03259 20.8358 7.11019 21.064 7.25331 21.2501C7.39643 21.4363 7.59703 21.5699 7.82394 21.6303C9.67625 22.1229 11.6437 22.1236 13.4983 21.6303C13.9648 21.5062 14.2897 21.0838 14.2897 20.601V18.9708C14.8023 18.7375 15.291 18.455 15.749 18.1272L17.1588 18.9415C17.5762 19.1826 18.1038 19.1135 18.4444 18.7725C19.7846 17.4307 20.7799 15.7445 21.2857 13.8581C21.4107 13.3918 21.208 12.8994 20.7899 12.6581L19.3775 11.8428C19.4317 11.2817 19.4317 10.7184 19.3775 10.1573ZM17.041 12.9525L18.9846 14.0742C18.635 15.0184 18.1273 15.8963 17.4832 16.6702L15.5392 15.5476C14.1205 16.7628 13.9132 16.8817 12.1607 17.5005V19.7448C11.1682 19.9143 10.1541 19.9143 9.16155 19.7448V17.5005C7.40936 16.8818 7.20124 16.7624 5.78313 15.5476L3.8391 16.6702C3.19505 15.8963 2.68735 15.0184 2.33773 14.0742L4.28132 12.9525C3.94289 11.1207 3.94271 10.8803 4.28132 9.04758L2.33773 7.92589C2.68592 6.98428 3.19422 6.10517 3.8391 5.32984L5.78313 6.45242C7.20178 5.23723 7.40918 5.11831 9.16155 4.49952V2.25525C10.1541 2.08582 11.1682 2.08582 12.1607 2.25525V4.49956C13.9129 5.11831 14.121 5.23772 15.5392 6.45246L17.4832 5.32989C18.1273 6.10383 18.635 6.9817 18.9846 7.92593L17.041 9.04762C17.3794 10.8795 17.3796 11.1198 17.041 12.9525ZM10.6611 6.74197C8.31322 6.74197 6.40308 8.65211 6.40308 11C6.40308 13.348 8.31322 15.2581 10.6611 15.2581C13.0091 15.2581 14.9192 13.348 14.9192 11C14.9192 8.65211 13.0091 6.74197 10.6611 6.74197ZM10.6611 13.1291C9.48716 13.1291 8.53211 12.174 8.53211 11C8.53211 9.8261 9.48716 8.871 10.6611 8.871C11.8351 8.871 12.7902 9.8261 12.7902 11C12.7902 12.174 11.8351 13.1291 10.6611 13.1291Z" fill="white"/>
</svg>
