<svg width="146" height="25" viewBox="0 0 146 25" fill="none" xmlns="http://www.w3.org/2000/svg">
<path d="M79.3676 21.5601C78.0868 21.5601 76.8847 21.334 75.7614 20.882C74.6381 20.4299 73.6484 19.8032 72.7922 19.0018C71.9361 18.1936 71.2683 17.2587 70.7888 16.197C70.3094 15.1354 70.0696 13.995 70.0696 12.7758C70.0696 11.5498 70.3094 10.4059 70.7888 9.3443C71.2751 8.27581 71.9429 7.34088 72.7922 6.53951C73.6484 5.73129 74.6347 5.10115 75.7512 4.6491C76.8744 4.19704 78.0731 3.97102 79.347 3.97102C80.3881 3.97102 81.3779 4.11828 82.3162 4.4128C83.2614 4.70732 84.0696 5.0943 84.7409 5.57376L83.3025 8.3991C82.8436 8.03608 82.2854 7.75184 81.6279 7.54636C80.9703 7.34088 80.282 7.23814 79.5628 7.23814C78.7203 7.23814 77.9395 7.37855 77.2203 7.65937C76.508 7.94019 75.8847 8.33061 75.3505 8.83061C74.8231 9.33061 74.4121 9.91622 74.1176 10.5875C73.8231 11.2587 73.6758 11.9847 73.6758 12.7655C73.6758 13.5464 73.8231 14.2724 74.1176 14.9436C74.4121 15.6149 74.8231 16.2005 75.3505 16.7005C75.8847 17.2005 76.508 17.5909 77.2203 17.8717C77.9395 18.1525 78.7203 18.2929 79.5628 18.2929C80.282 18.2929 80.9703 18.1902 81.6279 17.9847C82.2854 17.7792 82.8436 17.495 83.3025 17.132L84.7409 19.9573C84.097 20.4231 83.3059 20.8066 82.3676 21.108C81.4292 21.4094 80.4292 21.5601 79.3676 21.5601Z" fill="white"/>
<path d="M90.3535 21.5601C89.3878 21.5601 88.5076 21.3203 87.7131 20.8409C86.9254 20.3546 86.2987 19.6902 85.833 18.8477C85.3741 17.9984 85.1446 17.0327 85.1446 15.9505C85.1446 14.8957 85.3672 13.9505 85.8124 13.1149C86.2576 12.2724 86.8706 11.608 87.6515 11.1217C88.4391 10.6286 89.3398 10.382 90.3535 10.382C91.1001 10.382 91.7953 10.5258 92.4391 10.8135C93.0898 11.0943 93.6206 11.4881 94.0316 11.995V10.7107H97.1857V21.2313H94.0316V19.8443C93.5521 20.3991 93.0008 20.8238 92.3775 21.1183C91.7542 21.4128 91.0795 21.5601 90.3535 21.5601ZM91.2885 18.8786C91.8364 18.8786 92.3227 18.7553 92.7474 18.5087C93.172 18.2553 93.5042 17.9094 93.7439 17.471C93.9837 17.0327 94.1035 16.5327 94.1035 15.971C94.1035 15.4025 93.9802 14.9025 93.7337 14.471C93.4939 14.0327 93.1617 13.6902 92.7371 13.4436C92.3193 13.1902 91.8364 13.0635 91.2885 13.0635C90.7474 13.0635 90.2645 13.1902 89.8398 13.4436C89.4152 13.6902 89.0795 14.0327 88.833 14.471C88.5864 14.9094 88.4631 15.4094 88.4631 15.971C88.4631 16.5327 88.583 17.0327 88.8227 17.471C89.0693 17.9094 89.4049 18.2553 89.8295 18.5087C90.2542 18.7553 90.7405 18.8786 91.2885 18.8786Z" fill="white"/>
<path d="M99.8685 21.2313V10.7107H103.023V12.221C103.413 11.632 103.889 11.1799 104.451 10.8649C105.019 10.5429 105.629 10.382 106.279 10.382C106.649 10.382 107.033 10.4368 107.43 10.5464C107.827 10.6559 108.16 10.7964 108.427 10.9676L107.112 13.6286C106.879 13.471 106.605 13.3477 106.29 13.2587C105.982 13.1628 105.694 13.1149 105.427 13.1149C105.016 13.1149 104.625 13.221 104.255 13.4333C103.886 13.6457 103.588 13.9231 103.362 14.2655C103.136 14.6012 103.023 14.9642 103.023 15.3546V21.2313H99.8685Z" fill="white"/>
<path d="M114.09 21.5601C112.953 21.5601 111.932 21.3169 111.028 20.8306C110.131 20.3375 109.418 19.6696 108.891 18.8272C108.364 17.9847 108.1 17.0327 108.1 15.971C108.1 15.1902 108.247 14.4607 108.542 13.7827C108.843 13.1046 109.261 12.5121 109.795 12.0053C110.329 11.4916 110.949 11.0943 111.655 10.8135C112.36 10.5258 113.124 10.382 113.946 10.382C115.042 10.382 116.001 10.6114 116.822 11.0703C117.651 11.5224 118.295 12.1525 118.754 12.9607C119.22 13.769 119.453 14.7107 119.453 15.7861C119.453 15.8751 119.449 15.9539 119.442 16.0224C119.442 16.084 119.432 16.2039 119.412 16.382H111.346C111.346 16.9162 111.466 17.382 111.706 17.7792C111.953 18.1765 112.295 18.4881 112.733 18.7142C113.172 18.9333 113.682 19.0429 114.264 19.0429C114.812 19.0429 115.295 18.9368 115.713 18.7244C116.138 18.5121 116.545 18.1731 116.935 17.7073L119.206 18.8477C118.713 19.697 118.014 20.3614 117.11 20.8409C116.206 21.3203 115.199 21.5601 114.09 21.5601ZM111.459 14.6354H116.35C116.281 14.2313 116.134 13.882 115.908 13.5875C115.689 13.2929 115.408 13.0669 115.066 12.9094C114.723 12.7518 114.336 12.6731 113.905 12.6731C113.446 12.6731 113.042 12.7518 112.692 12.9094C112.343 13.0669 112.062 13.2929 111.85 13.5875C111.638 13.882 111.507 14.2313 111.459 14.6354Z" fill="white"/>
<path d="M3.36798 21.2313V4.27924H12.892V7.19704H5.89538L6.69675 6.46759V12.2005L5.89538 11.2758H12.4296V14.1936H5.89538L6.69675 13.269V21.2313H3.36798Z" fill="white"/>
<path d="M18.4959 21.5601C17.5302 21.5601 16.65 21.3203 15.8555 20.8409C15.0678 20.3546 14.4411 19.6902 13.9754 18.8477C13.5165 17.9984 13.287 17.0327 13.287 15.9505C13.287 14.8957 13.5096 13.9505 13.9548 13.1149C14.4 12.2724 15.013 11.608 15.7939 11.1217C16.5815 10.6286 17.4822 10.382 18.4959 10.382C19.2425 10.382 19.9377 10.5258 20.5815 10.8135C21.2322 11.0943 21.763 11.4881 22.174 11.995V10.7107H25.3281V21.2313H22.174V19.8443C21.6946 20.3991 21.1432 20.8238 20.5199 21.1183C19.8966 21.4128 19.222 21.5601 18.4959 21.5601ZM19.4309 18.8786C19.9788 18.8786 20.4651 18.7553 20.8898 18.5087C21.3144 18.2553 21.6466 17.9094 21.8863 17.471C22.1261 17.0327 22.2459 16.5327 22.2459 15.971C22.2459 15.4025 22.1226 14.9025 21.8761 14.471C21.6363 14.0327 21.3041 13.6902 20.8795 13.4436C20.4617 13.1902 19.9788 13.0635 19.4309 13.0635C18.8898 13.0635 18.4069 13.1902 17.9822 13.4436C17.5576 13.6902 17.222 14.0327 16.9754 14.471C16.7288 14.9094 16.6055 15.4094 16.6055 15.971C16.6055 16.5327 16.7254 17.0327 16.9651 17.471C17.2117 17.9094 17.5473 18.2553 17.972 18.5087C18.3966 18.7553 18.8829 18.8786 19.4309 18.8786Z" fill="white"/>
<path d="M28.0109 21.2313V10.7107H31.165V12.221C31.5554 11.632 32.0315 11.1799 32.5931 10.8649C33.1616 10.5429 33.7712 10.382 34.4219 10.382C34.7917 10.382 35.1753 10.4368 35.5725 10.5464C35.9698 10.6559 36.302 10.7964 36.5691 10.9676L35.2541 13.6286C35.0212 13.471 34.7472 13.3477 34.4321 13.2587C34.1239 13.1628 33.8362 13.1149 33.5691 13.1149C33.1582 13.1149 32.7678 13.221 32.3979 13.4333C32.028 13.6457 31.7301 13.9231 31.5041 14.2655C31.278 14.6012 31.165 14.9642 31.165 15.3546V21.2313H28.0109Z" fill="white"/>
<path d="M37.2976 21.2313V10.7107H40.4517V11.882C40.9723 11.3614 41.4894 10.9813 42.0031 10.7416C42.5168 10.5018 43.0716 10.382 43.6675 10.382C44.4757 10.382 45.2052 10.5635 45.8558 10.9265C46.5065 11.2895 46.9723 11.7758 47.2531 12.3854C47.7668 11.721 48.3182 11.221 48.9072 10.8854C49.4962 10.5498 50.1709 10.382 50.9312 10.382C51.6914 10.382 52.3661 10.5395 52.9552 10.8546C53.5442 11.1696 54.0065 11.6183 54.3421 12.2005C54.6846 12.7758 54.8558 13.4573 54.8558 14.245V21.2313H51.7017V15.108C51.7017 14.4231 51.5236 13.8854 51.1675 13.495C50.8113 13.0977 50.3353 12.8991 49.7394 12.8991C49.3284 12.8991 48.9654 12.9847 48.6504 13.1559C48.3421 13.3272 48.099 13.5566 47.9209 13.8443C47.7428 14.132 47.6538 14.4505 47.6538 14.7998V21.2313H44.4997V15.0464C44.4997 14.3957 44.325 13.8751 43.9757 13.4847C43.6332 13.0943 43.1572 12.8991 42.5476 12.8991C42.1435 12.8991 41.7805 12.9847 41.4586 13.1559C41.1435 13.3272 40.8969 13.5601 40.7188 13.8546C40.5408 14.1491 40.4517 14.4744 40.4517 14.8306V21.2313H37.2976Z" fill="white"/>
<path d="M61.767 21.5601C60.8012 21.5601 59.9211 21.3203 59.1266 20.8409C58.3389 20.3546 57.7122 19.6902 57.2465 18.8477C56.7876 17.9984 56.5581 17.0327 56.5581 15.9505C56.5581 14.8957 56.7807 13.9505 57.2259 13.1149C57.6711 12.2724 58.2841 11.608 59.0649 11.1217C59.8526 10.6286 60.7533 10.382 61.767 10.382C62.5136 10.382 63.2088 10.5258 63.8526 10.8135C64.5033 11.0943 65.0341 11.4881 65.4451 11.995V10.7107H68.5992V21.2313H65.4451V19.8443C64.9656 20.3991 64.4143 20.8238 63.791 21.1183C63.1677 21.4128 62.493 21.5601 61.767 21.5601ZM62.7019 18.8786C63.2499 18.8786 63.7362 18.7553 64.1608 18.5087C64.5855 18.2553 64.9177 17.9094 65.1574 17.471C65.3971 17.0327 65.517 16.5327 65.517 15.971C65.517 15.4025 65.3937 14.9025 65.1471 14.471C64.9074 14.0327 64.5752 13.6902 64.1506 13.4436C63.7328 13.1902 63.2499 13.0635 62.7019 13.0635C62.1608 13.0635 61.678 13.1902 61.2533 13.4436C60.8286 13.6902 60.493 14.0327 60.2465 14.471C59.9999 14.9094 59.8766 15.4094 59.8766 15.971C59.8766 16.5327 59.9965 17.0327 60.2362 17.471C60.4828 17.9094 60.8184 18.2553 61.243 18.5087C61.6677 18.7553 62.154 18.8786 62.7019 18.8786Z" fill="white"/>
<path d="M123.423 21.5601C123.039 21.5601 122.69 21.4676 122.375 21.2827C122.067 21.0977 121.82 20.8512 121.635 20.5429C121.457 20.2279 121.368 19.882 121.368 19.5053C121.368 19.1217 121.457 18.7758 121.635 18.4676C121.82 18.1594 122.07 17.9128 122.385 17.7279C122.7 17.5429 123.046 17.4505 123.423 17.4505C123.806 17.4505 124.152 17.5429 124.46 17.7279C124.769 17.9128 125.015 18.1594 125.2 18.4676C125.385 18.7758 125.478 19.1217 125.478 19.5053C125.478 19.882 125.385 20.2279 125.2 20.5429C125.015 20.8512 124.769 21.0977 124.46 21.2827C124.152 21.4676 123.806 21.5601 123.423 21.5601Z" fill="white"/>
<path d="M128.451 21.2313V10.7107H131.605V21.2313H128.451ZM130.033 8.52239C129.691 8.52239 129.376 8.4402 129.088 8.27581C128.807 8.10458 128.581 7.87513 128.41 7.58746C128.239 7.29978 128.153 6.98472 128.153 6.64225C128.153 6.29978 128.239 5.98814 128.41 5.70732C128.581 5.4265 128.807 5.20389 129.088 5.03951C129.376 4.86828 129.691 4.78266 130.033 4.78266C130.376 4.78266 130.687 4.86828 130.968 5.03951C131.249 5.20389 131.471 5.4265 131.636 5.70732C131.807 5.98814 131.893 6.29978 131.893 6.64225C131.893 6.98472 131.807 7.29978 131.636 7.58746C131.471 7.87513 131.249 8.10458 130.968 8.27581C130.687 8.4402 130.376 8.52239 130.033 8.52239Z" fill="white"/>
<path d="M138.653 21.5601C137.701 21.5601 136.831 21.3238 136.043 20.8512C135.262 20.3717 134.639 19.7107 134.173 18.8683C133.707 18.0258 133.475 17.0601 133.475 15.971C133.475 14.9025 133.701 13.9505 134.153 13.1149C134.605 12.2724 135.225 11.608 136.012 11.1217C136.807 10.6286 137.714 10.382 138.735 10.382C139.475 10.382 140.16 10.5258 140.79 10.8135C141.42 11.0943 141.944 11.4881 142.362 11.995V3.56006H145.516V21.2313H142.362V19.8443C141.896 20.3854 141.344 20.8066 140.707 21.108C140.07 21.4094 139.386 21.5601 138.653 21.5601ZM139.598 18.8786C140.153 18.8786 140.642 18.7553 141.067 18.5087C141.492 18.2553 141.824 17.9094 142.064 17.471C142.31 17.0327 142.433 16.5361 142.433 15.9813C142.433 15.4196 142.31 14.9196 142.064 14.4813C141.824 14.0429 141.492 13.697 141.067 13.4436C140.642 13.1902 140.156 13.0635 139.608 13.0635C139.067 13.0635 138.584 13.1902 138.16 13.4436C137.742 13.697 137.41 14.0464 137.163 14.4916C136.916 14.9299 136.793 15.4299 136.793 15.9916C136.793 16.5464 136.913 17.0429 137.153 17.4813C137.392 17.9128 137.725 18.2553 138.149 18.5087C138.574 18.7553 139.057 18.8786 139.598 18.8786Z" fill="white"/>
<path fill-rule="evenodd" clip-rule="evenodd" d="M121.819 8.10679V12.5577H124.915V8.10679H127.559C127.555 8.10043 127.551 8.09406 127.547 8.08767C127.284 7.64613 127.153 7.16254 127.153 6.6369C127.153 6.11126 127.284 5.63292 127.547 5.2019C127.587 5.13619 127.629 5.07255 127.673 5.01099H124.915V0.560059H121.819V5.01099H117.368V8.10679H121.819Z" fill="white"/>
</svg>
