<svg width="21" height="24" viewBox="0 0 21 24" fill="none" xmlns="http://www.w3.org/2000/svg">
<path d="M12.5625 19.5H13.6875C13.8367 19.5 13.9798 19.4407 14.0852 19.3352C14.1907 19.2298 14.25 19.0867 14.25 18.9375V8.8125C14.25 8.66332 14.1907 8.52024 14.0852 8.41475C13.9798 8.30926 13.8367 8.25 13.6875 8.25H12.5625C12.4133 8.25 12.2702 8.30926 12.1648 8.41475C12.0593 8.52024 12 8.66332 12 8.8125V18.9375C12 19.0867 12.0593 19.2298 12.1648 19.3352C12.2702 19.4407 12.4133 19.5 12.5625 19.5ZM20.25 3.75H16.387L14.7933 1.09219C14.5933 0.758914 14.3103 0.483137 13.972 0.29173C13.6338 0.100323 13.2517 -0.000184847 12.863 2.55209e-07H8.13703C7.74851 -2.29111e-05 7.36659 0.100562 7.02848 0.291961C6.69037 0.48336 6.40758 0.75905 6.20766 1.09219L4.61297 3.75H0.75C0.551088 3.75 0.360322 3.82902 0.21967 3.96967C0.0790176 4.11032 0 4.30109 0 4.5L0 5.25C0 5.44891 0.0790176 5.63968 0.21967 5.78033C0.360322 5.92098 0.551088 6 0.75 6H1.5V21.75C1.5 22.3467 1.73705 22.919 2.15901 23.341C2.58097 23.7629 3.15326 24 3.75 24H17.25C17.8467 24 18.419 23.7629 18.841 23.341C19.2629 22.919 19.5 22.3467 19.5 21.75V6H20.25C20.4489 6 20.6397 5.92098 20.7803 5.78033C20.921 5.63968 21 5.44891 21 5.25V4.5C21 4.30109 20.921 4.11032 20.7803 3.96967C20.6397 3.82902 20.4489 3.75 20.25 3.75ZM8.055 2.38641C8.08007 2.34468 8.11553 2.31018 8.15793 2.28627C8.20033 2.26236 8.2482 2.24986 8.29688 2.25H12.7031C12.7517 2.24994 12.7995 2.26248 12.8418 2.28639C12.8841 2.31029 12.9195 2.34475 12.9445 2.38641L13.763 3.75H7.23703L8.055 2.38641ZM17.25 21.75H3.75V6H17.25V21.75ZM7.3125 19.5H8.4375C8.58668 19.5 8.72976 19.4407 8.83525 19.3352C8.94074 19.2298 9 19.0867 9 18.9375V8.8125C9 8.66332 8.94074 8.52024 8.83525 8.41475C8.72976 8.30926 8.58668 8.25 8.4375 8.25H7.3125C7.16332 8.25 7.02024 8.30926 6.91475 8.41475C6.80926 8.52024 6.75 8.66332 6.75 8.8125V18.9375C6.75 19.0867 6.80926 19.2298 6.91475 19.3352C7.02024 19.4407 7.16332 19.5 7.3125 19.5Z" fill="#3A4F62" fill-opacity="0.2"/>
</svg>
